<?xml version="1.0" standalone="no"?>
<!DOCTYPE svg PUBLIC "-//W3C//DTD SVG 20010904//EN"
 "http://www.w3.org/TR/2001/REC-SVG-20010904/DTD/svg10.dtd">
<svg version="1.0" xmlns="http://www.w3.org/2000/svg"
 width="300.000000pt" height="139.000000pt" viewBox="0 0 300.000000 139.000000"
 preserveAspectRatio="xMidYMid meet">
<metadata>
Created by potrace 1.10, written by Peter Selinger 2001-2011
</metadata>
<g transform="translate(0.000000,139.000000) scale(0.050000,-0.050000)"
fill="#000000" stroke="none">
<path d="M1070 2320 c-44 -9 -239 -32 -434 -52 l-354 -36 -9 -71 c-31 -242
-10 -297 87 -221 64 50 94 50 110 1 15 -49 83 -72 121 -40 33 27 39 99 9 99
-11 0 -20 -13 -20 -30 0 -36 -43 -39 -76 -6 -37 37 -31 46 66 96 130 67 130
126 9 -706 -24 -163 -18 -176 66 -154 36 9 118 28 182 40 l117 24 -13 103 c-7
57 -17 148 -23 203 -26 243 -45 383 -56 420 -27 89 10 99 201 55 211 -49 189
-66 171 126 -15 175 -17 176 -154 149z m-230 -160 c0 -45 -63 -66 -96 -33 -28
28 -29 37 -7 51 30 19 103 6 103 -18z m-120 -789 c0 -45 44 -60 70 -24 30 41
50 42 50 3 0 -47 -91 -82 -129 -50 -35 28 -42 100 -11 100 11 0 20 -13 20 -29z"/>
<path d="M1368 2298 c-48 -54 -63 -521 -21 -698 115 -492 615 -577 833 -142
80 159 102 796 30 851 -65 49 -78 39 -196 -158 -107 -179 -113 -197 -110 -310
4 -134 -35 -201 -116 -201 -81 0 -130 89 -115 211 10 86 5 116 -27 162 -22 31
-74 118 -115 192 -80 145 -104 158 -163 93z m303 -752 c43 -43 -10 -91 -88
-76 -77 14 -100 48 -54 81 51 38 101 37 142 -5z m378 7 c53 -39 21 -73 -69
-73 -43 0 -84 10 -92 23 -16 27 44 77 92 77 18 0 49 -12 69 -27z m-199 -133
c18 -108 -2 -160 -61 -160 -56 0 -81 65 -61 164 28 140 98 138 122 -4z"/>
<path d="M1678 2297 c-24 -46 67 -257 112 -257 11 0 46 48 77 107 76 141 55
193 -77 193 -70 0 -93 -9 -112 -43z"/>
<path d="M3543 2304 c-24 -48 -112 -422 -102 -432 5 -4 70 -14 144 -22 l135
-15 0 98 c1 106 26 173 46 121 21 -55 39 -354 22 -354 -10 1 -94 13 -188 29
-201 33 -190 40 -230 -148 -17 -82 -35 -152 -39 -157 -31 -31 -42 59 -46 399
-8 568 13 544 -245 287 l-216 -215 -129 137 c-71 76 -158 172 -194 213 -91
104 -90 106 -129 -190 -19 -146 -53 -379 -74 -519 -21 -139 -38 -266 -38 -282
0 -20 38 -32 138 -41 76 -7 153 -18 170 -25 28 -11 32 15 32 202 0 248 19 262
96 74 l51 -124 85 0 86 0 34 121 c30 108 58 156 78 136 4 -4 13 -88 21 -187
18 -230 19 -231 177 -201 91 17 165 18 260 4 160 -24 145 -40 175 183 l24 184
65 0 c76 0 79 -8 99 -220 7 -82 16 -155 20 -161 8 -14 242 19 301 41 l43 17
-68 286 c-37 158 -91 395 -121 527 -61 275 -60 274 -181 238 -78 -24 -105 -24
-188 1 -88 26 -98 26 -114 -5z m113 -213 c-53 -46 -53 -48 -15 -82 40 -36 51
-69 24 -69 -9 0 -41 24 -73 54 l-58 53 54 47 c30 25 69 46 88 45 27 0 22 -11
-20 -48z m245 18 c72 -37 73 -53 8 -118 -65 -66 -89 -64 -89 4 0 30 -6 75 -13
100 -14 54 11 57 94 14z m-1382 -105 c-28 -50 -99 -87 -99 -50 0 9 19 46 41
84 54 87 108 56 58 -34z m689 14 c40 -67 28 -98 -24 -65 -40 24 -86 108 -72
130 16 27 59 -2 96 -65z m-590 -116 c43 -28 6 -62 -68 -62 -37 0 -74 10 -81
22 -17 27 26 57 81 57 22 0 52 -7 68 -17z m544 -3 c57 -31 27 -59 -63 -59 -55
0 -79 9 -79 28 0 49 77 66 142 31z m-257 -68 c65 -27 135 -105 135 -150 0 -40
-38 -20 -72 37 -45 75 -111 111 -177 94 -59 -15 -141 -89 -121 -109 7 -7 24 1
37 19 81 110 250 62 252 -71 3 -146 -197 -169 -269 -31 -20 38 -41 55 -60 47
-84 -32 -12 88 90 150 83 51 94 52 185 14z m615 -381 c0 -16 14 -30 30 -30 17
0 30 -13 30 -30 0 -16 -13 -30 -30 -30 -16 0 -30 -13 -30 -30 0 -16 -13 -30
-30 -30 -16 0 -30 9 -30 21 0 11 14 25 30 32 17 6 30 24 30 39 0 15 -13 28
-30 28 -16 0 -30 -13 -30 -30 0 -16 -13 -30 -30 -30 -40 0 -38 31 5 78 43 47
85 53 85 12z m520 0 c0 -16 -13 -30 -30 -30 -16 0 -30 -13 -30 -30 0 -16 -13
-30 -30 -30 -16 0 -30 14 -30 30 0 17 14 30 30 30 17 0 30 14 30 30 0 17 14
30 30 30 17 0 30 -13 30 -30z m60 -60 c0 -16 -13 -30 -30 -30 -16 0 -30 -13
-30 -30 0 -16 -13 -30 -30 -30 -41 0 -38 16 15 72 52 55 75 60 75 18z"/>
<path d="M2745 1701 c-52 -83 42 -167 126 -112 84 55 52 151 -50 151 -29 0
-62 -17 -76 -39z m95 -21 c16 25 19 23 20 -11 0 -26 -14 -42 -40 -44 -29 -2
-40 10 -40 41 1 36 4 38 20 14 18 -27 22 -27 40 0z"/>
<path d="M4253 2327 c-7 -8 -13 -267 -13 -578 l0 -564 181 -2 181 -3 -11 165
c-7 91 -16 237 -22 325 -11 160 -16 222 -40 515 l-12 155 -125 0 c-69 0 -131
-6 -139 -13z m179 -177 c15 -62 -2 -110 -40 -110 -36 0 -59 66 -42 120 18 56
67 50 82 -10z m-25 -184 c8 -7 -11 -34 -41 -58 -31 -24 -49 -51 -41 -59 8 -8
28 -3 45 11 19 15 30 17 30 4 0 -12 -9 -27 -21 -35 -29 -18 10 -62 68 -77 61
-15 98 -97 73 -161 -22 -58 -91 -102 -111 -70 -7 12 -10 23 -6 25 68 36 88 55
94 86 7 36 6 36 -31 3 -48 -43 -78 -21 -35 26 29 32 25 38 -45 72 -62 30 -77
49 -82 104 -9 86 60 172 103 129z m43 -546 c19 -59 -8 -123 -47 -116 -34 7
-54 78 -35 127 16 42 67 35 82 -11z"/>
<path d="M5596 2035 c-6 -168 -10 -426 -8 -575 l2 -270 175 -6 c170 -5 185 -1
179 57 -1 7 -7 137 -14 290 -7 154 -16 293 -20 309 -4 17 -13 129 -20 249 -15
267 -5 251 -158 251 l-126 0 -10 -305z m184 135 c36 -44 -12 -161 -53 -128
-15 13 -27 47 -27 77 0 83 35 105 80 51z m-20 -209 c0 -11 -18 -29 -40 -41
-22 -12 -40 -36 -40 -53 0 -26 5 -27 30 -7 40 33 63 10 31 -29 -30 -36 -11
-71 39 -71 83 0 128 -136 67 -203 -36 -40 -87 -50 -87 -17 0 11 8 20 19 20 24
0 81 57 81 82 0 10 -22 4 -50 -14 -46 -30 -50 -30 -50 0 0 17 9 32 20 32 44 0
16 43 -40 63 -105 36 -133 145 -56 216 47 44 76 52 76 22z m30 -581 c0 -78
-38 -100 -69 -41 -16 30 -16 52 0 82 31 59 69 37 69 -41z"/>
<path d="M4675 1835 c2 -267 5 -491 5 -497 0 -7 51 -18 113 -26 137 -16 146
-6 147 152 0 125 25 162 62 92 14 -25 73 -121 133 -212 l108 -166 83 6 c77 6
84 11 89 66 3 33 19 150 35 260 16 110 43 313 61 450 18 138 37 266 42 285 14
50 -323 52 -419 2 l-63 -33 64 -31 c79 -37 81 -49 10 -82 -53 -24 -26 -81 39
-81 34 0 14 -44 -24 -54 -37 -10 -58 -66 -25 -66 60 -2 73 -42 25 -82 -34 -28
-42 -44 -25 -51 69 -28 124 -167 66 -167 -11 0 -130 162 -264 360 -135 198
-250 360 -256 360 -6 0 -9 -218 -6 -485z m694 282 c64 -29 65 -52 1 -81 -64
-29 -63 -44 5 -75 56 -25 44 -51 -43 -90 -13 -5 -4 -23 23 -43 58 -43 57 -56
-9 -86 l-55 -25 50 -38 c49 -37 49 -37 9 -67 -72 -55 -94 -41 -80 53 7 47 16
162 20 255 8 219 8 220 19 220 5 0 32 -10 60 -23z"/>
<path d="M2700 2110 c60 -60 118 -110 130 -110 12 0 70 50 130 110 l109 110
-239 0 -239 0 109 -110z"/>
<path d="M900 1994 c0 -36 42 -74 82 -74 42 0 86 51 68 80 -9 15 -23 10 -42
-14 -27 -34 -29 -34 -55 -1 -32 41 -53 45 -53 9z"/>
<path d="M1089 1975 c-18 -47 24 -95 83 -95 54 0 102 69 64 92 -13 8 -27 4
-31 -8 -12 -35 -47 -29 -76 11 -25 33 -27 33 -40 0z"/>
<path d="M1769 1895 c-17 -44 -3 -135 21 -141 27 -6 38 126 12 152 -14 14 -24
11 -33 -11z"/>
<path d="M284 1837 c9 -60 66 -93 111 -65 39 24 60 108 27 108 -11 0 -29 -16
-41 -35 -20 -33 -22 -33 -48 0 -37 47 -57 44 -49 -8z"/>
<path d="M3733 1446 c-16 -16 -17 -93 -1 -134 19 -51 48 -16 48 58 0 66 -22
101 -47 76z"/>
<path d="M2793 1287 c-25 -26 -13 -83 21 -96 42 -16 95 36 79 77 -12 32 -75
44 -100 19z"/>
<path d="M4700 1190 c0 -67 8 -90 30 -90 21 0 30 21 30 70 0 91 36 91 44 0 9
-105 45 -94 52 15 l6 95 -81 0 -81 0 0 -90z"/>
<path d="M2112 838 c-132 -103 -171 -308 -80 -416 28 -34 43 -62 34 -62 -10 0
-40 -29 -65 -65 l-47 -65 60 56 61 57 71 -76 c40 -42 79 -69 87 -61 8 8 -26
57 -76 109 -200 208 -204 370 -13 511 l53 40 117 -46 c171 -68 176 -77 94
-166 l-70 -75 -52 40 c-93 74 -211 12 -142 -75 14 -18 33 -43 41 -54 8 -11 55
-71 105 -134 107 -134 111 -175 26 -246 -102 -86 -376 48 -376 183 0 57 -26
59 -184 14 -131 -37 -128 -37 -147 38 -13 53 -11 55 39 36 30 -12 52 -12 52
-2 0 10 20 21 45 25 30 4 47 22 52 53 9 63 -26 97 -64 65 -20 -16 -34 -17 -42
-3 -8 12 -35 21 -62 21 -36 0 -49 11 -49 40 0 36 13 40 152 40 l152 0 -14 105
c-19 145 -16 144 -275 73 l-232 -64 -6 -213 c-4 -118 -4 -270 0 -338 l7 -125
243 14 c276 15 327 29 336 88 7 38 15 35 114 -39 121 -92 191 -102 270 -39
116 90 105 180 -38 319 -71 69 -92 127 -39 106 19 -7 30 1 30 21 0 18 16 32
36 32 20 0 63 28 95 62 l59 61 10 -96 c7 -66 18 -95 36 -92 15 4 22 -3 15 -13
-16 -27 19 -45 57 -30 35 13 45 108 12 108 -11 0 -20 -9 -20 -20 0 -11 -9 -20
-20 -20 -32 0 -23 35 13 49 19 7 43 3 54 -8 12 -12 42 -21 68 -21 42 0 46 -7
35 -65 -19 -111 -43 -396 -33 -406 17 -17 63 -9 63 10 0 11 -12 15 -27 9 -22
-8 -24 13 -11 106 75 568 83 530 -85 438 l-127 -70 4 94 c2 52 4 99 5 104 0 6
26 11 56 13 47 3 261 27 500 57 36 4 61 0 55 -9 -5 -10 -1 -38 10 -64 17 -42
19 -40 15 23 l-5 70 -130 -6 c-71 -3 -227 -19 -345 -34 -214 -28 -216 -28
-320 21 -129 60 -174 61 -243 7z m-312 -32 c-27 -5 -79 -37 -114 -71 -63 -60
-65 -60 -158 -34 l-95 26 149 44 c81 25 175 45 208 44 52 0 54 -2 10 -9z m45
-82 c17 -68 -6 -84 -122 -83 -87 0 -105 5 -78 21 20 11 57 42 84 69 52 51 101
48 116 -7z m-285 -64 c37 -12 40 -17 13 -18 -25 -1 -33 -12 -25 -34 7 -17 12
-44 12 -60 0 -18 22 -28 60 -28 53 0 60 -7 60 -60 0 -55 -5 -60 -50 -48 -46
11 -50 7 -50 -55 1 -125 54 -133 295 -42 18 7 25 -19 25 -91 l0 -101 -105 -11
c-58 -6 -175 -15 -260 -20 l-155 -9 0 275 c0 330 15 355 180 302z m1200 -20
c0 -11 -14 -20 -32 -20 -19 0 -28 -11 -22 -28 10 -25 0 -27 -66 -13 -16 4 82
81 102 81 10 0 18 -9 18 -20z"/>
<path d="M1060 808 c-93 -27 -204 -55 -244 -61 -44 -7 -79 -26 -85 -45 -11
-38 -2 -538 10 -550 9 -8 149 -62 224 -86 40 -12 48 90 13 164 -13 28 -15 13
-7 -53 10 -88 8 -93 -32 -83 -76 20 -92 95 -43 197 24 50 44 112 44 140 0 39
10 49 50 49 46 0 50 -7 50 -91 0 -83 -4 -90 -40 -79 -22 7 -40 4 -40 -6 0 -46
85 -10 109 46 34 83 8 150 -58 150 -39 0 -51 10 -51 43 0 39 7 41 95 29 52 -8
139 -19 193 -26 l97 -12 -14 118 c-29 239 -12 230 -271 156z m258 -205 c2 -39
-6 -45 -43 -36 -25 6 -104 17 -175 24 -72 7 -137 17 -145 22 -8 5 -15 -23 -15
-63 0 -86 -28 -77 -60 21 -35 105 -13 165 65 179 36 7 83 16 105 20 22 4 40 8
40 10 0 2 41 14 90 27 l90 23 23 -90 c13 -49 24 -111 25 -137z m-493 70 c-5
-26 10 -84 33 -129 53 -104 53 -163 0 -253 -24 -41 -38 -90 -32 -113 8 -31 3
-38 -19 -30 -17 7 -34 12 -39 12 -14 0 -9 532 5 547 31 30 61 11 52 -34z"/>
<path d="M787 429 c-16 -41 16 -72 51 -50 30 18 16 81 -18 81 -12 0 -27 -14
-33 -31z"/>
<path d="M3240 689 c0 -187 43 -269 143 -269 44 0 44 -1 6 -32 -39 -31 -39
-31 0 -19 37 12 37 11 5 -25 -46 -50 -43 -70 7 -43 56 29 46 122 -16 149 -32
14 -41 30 -33 58 10 30 5 35 -24 24 -34 -13 -34 -12 1 27 43 48 9 56 -38 10
-28 -29 -31 -18 -31 120 l0 151 78 0 c92 0 93 -2 114 -286 7 -107 18 -191 23
-186 5 6 3 118 -5 251 l-14 241 -108 0 -108 0 0 -171z"/>
<path d="M4060 846 c-69 -13 -91 -38 -63 -73 19 -23 15 -30 -21 -40 -36 -9
-40 -17 -21 -36 36 -36 31 -57 -15 -57 -42 0 -54 -29 -20 -50 12 -7 16 -20 11
-28 -5 -8 4 -15 20 -15 16 0 29 7 29 16 0 10 -9 17 -20 17 -11 0 -20 9 -20 20
0 11 19 20 42 20 35 0 41 9 33 50 -6 34 -1 50 19 50 19 0 25 13 17 38 -25 79
47 62 121 -29 66 -81 71 -96 51 -141 -34 -73 6 -148 53 -100 25 25 27 37 8 56
-13 13 -24 41 -24 62 0 38 -121 255 -140 251 -5 -1 -32 -6 -60 -11z"/>
<path d="M4371 713 c-47 -207 -45 -212 54 -216 47 -2 98 -4 113 -5 34 -3 55
-52 22 -52 -12 0 -16 -10 -9 -22 31 -49 52 22 38 129 -14 120 -49 136 -49 23
0 -67 -1 -67 -75 -56 -106 16 -112 27 -75 158 18 65 34 128 35 140 1 14 24 17
63 8 34 -7 95 -9 134 -5 l73 9 32 -127 c78 -306 99 -393 117 -484 22 -115 30
-106 -97 -117 l-103 -10 -14 127 c-13 124 -15 127 -72 127 -32 0 -58 -9 -58
-20 0 -11 20 -17 44 -15 30 3 47 -8 52 -34 8 -36 5 -37 -27 -10 -33 27 -34 26
-8 -16 22 -35 23 -49 3 -69 -28 -28 -31 -56 -6 -56 10 0 28 25 39 55 20 54 20
54 21 -19 2 -93 14 -100 151 -84 138 17 136 -4 29 438 l-83 340 -156 1 -157 0
-31 -138z"/>
<path d="M4935 847 c-6 -9 1 -134 17 -277 30 -281 23 -380 -25 -362 -16 7 -24
3 -17 -8 17 -28 65 -25 77 5 5 14 11 -14 11 -62 2 -80 6 -86 47 -77 25 6 151
35 281 64 l236 54 -13 63 c-7 35 -21 71 -30 80 -9 10 -11 30 -5 45 17 46 -46
53 -161 20 -60 -18 -119 -32 -131 -32 -15 0 -17 74 -9 240 l13 240 -50 0 c-28
0 -91 6 -141 12 -49 7 -95 5 -100 -5z m163 -29 l106 -5 -15 -250 c-14 -238
-12 -248 23 -237 260 80 327 78 233 -10 -51 -47 -392 -156 -416 -132 -29 30
-81 666 -53 648 9 -5 64 -12 122 -14z m422 -578 c0 -41 4 -40 -250 -100 -99
-24 -196 -47 -215 -53 -21 -6 -35 1 -35 18 0 20 62 43 199 74 124 28 211 59
232 82 39 43 69 34 69 -21z"/>
<path d="M5100 680 c0 -33 9 -60 20 -60 11 0 20 27 20 60 0 33 -9 60 -20 60
-11 0 -20 -27 -20 -60z"/>
<path d="M5020 560 c0 -11 32 -20 70 -20 39 0 70 9 70 20 0 11 -31 20 -70 20
-38 0 -70 -9 -70 -20z"/>
<path d="M5287 770 c-7 -18 -3 -42 9 -54 30 -30 88 -3 80 39 -9 46 -73 57 -89
15z"/>
<path d="M2804 737 c11 -31 74 -37 81 -7 3 11 -16 23 -42 27 -33 4 -45 -2 -39
-20z"/>
<path d="M3320 730 c-20 -24 -20 -36 0 -60 37 -44 60 -37 60 19 0 61 -28 80
-60 41z"/>
<path d="M3632 707 c-41 -28 -70 -55 -65 -61 6 -6 37 9 70 32 77 55 75 55 123
-38 90 -176 158 -268 172 -232 16 42 -28 132 -65 132 -14 0 -49 44 -76 99 -65
126 -70 129 -159 68z"/>
<path d="M2309 718 c-21 -33 26 -71 53 -44 23 23 9 66 -22 66 -10 0 -24 -10
-31 -22z"/>
<path d="M4455 691 c-46 -33 -44 -65 5 -91 41 -22 59 6 19 31 -14 8 -9 22 13
38 19 14 26 30 16 36 -10 6 -34 0 -53 -14z"/>
<path d="M4600 651 c0 -81 16 -87 82 -34 l46 38 -64 33 -64 33 0 -70z"/>
<path d="M3151 675 c15 -40 -11 -43 -151 -16 -121 24 -120 26 -87 -257 31
-268 31 -269 -73 -300 -68 -20 -67 -21 20 -9 117 15 110 -5 86 252 -20 221 -9
295 42 295 10 0 3 -16 -15 -37 -36 -39 -26 -67 19 -50 15 6 22 21 15 34 -8 13
9 3 36 -22 50 -45 89 -61 68 -27 -6 9 5 16 24 15 42 -4 61 99 25 134 -17 17
-19 14 -9 -12z"/>
<path d="M3680 660 c0 -11 -15 -20 -34 -20 -23 0 -28 -6 -13 -21 26 -26 87 -3
87 33 0 15 -9 28 -20 28 -11 0 -20 -9 -20 -20z"/>
<path d="M5305 667 c-33 -14 -32 -60 3 -73 35 -14 72 23 58 58 -11 29 -20 31
-61 15z"/>
<path d="M3542 567 c-19 -43 -18 -58 7 -86 17 -19 31 -44 31 -56 0 -36 39 -50
69 -26 21 18 50 -15 141 -158 138 -219 119 -219 250 -2 86 144 113 175 135
157 46 -38 78 13 45 73 -25 49 -80 40 -80 -12 0 -22 -105 -185 -125 -194 -8
-3 -15 -17 -15 -30 -1 -12 -19 -45 -41 -73 l-40 -50 -49 60 c-27 33 -61 83
-75 110 -31 60 -214 340 -223 340 -3 0 -16 -24 -30 -53z m74 -90 c-25 -16 -7
-26 34 -18 11 2 8 -8 -6 -22 -32 -34 -69 14 -52 68 7 22 1 32 -16 28 -14 -3
-19 -3 -11 2 8 5 10 19 4 32 -7 13 7 1 30 -25 33 -38 37 -52 17 -65z"/>
<path d="M3220 281 l0 -221 140 0 140 0 -4 105 -3 105 -8 -95 -7 -95 -121 0
-121 0 10 200 c5 110 2 205 -8 211 -10 7 -18 -84 -18 -210z"/>
<path d="M1108 431 c7 -27 3 -54 -8 -61 -13 -8 -13 -26 2 -54 20 -37 25 -38
53 -9 25 24 27 37 7 60 -17 20 -17 31 -2 36 32 11 2 77 -34 77 -22 0 -27 -13
-18 -49z"/>
<path d="M4322 461 c-19 -13 -67 -222 -54 -235 5 -5 20 42 34 105 l25 114 97
-12 c54 -6 93 -4 87 6 -12 20 -165 37 -189 22z"/>
<path d="M3587 329 c-17 -44 25 -85 56 -54 25 25 9 85 -23 85 -12 0 -27 -14
-33 -31z"/>
<path d="M4167 329 c-17 -44 25 -85 56 -54 25 25 9 85 -23 85 -12 0 -27 -14
-33 -31z"/>
<path d="M3333 247 c-21 -21 -15 -83 9 -98 33 -21 64 22 49 69 -14 43 -34 53
-58 29z"/>
<path d="M4344 229 c-22 -25 -20 -36 8 -64 25 -25 37 -28 43 -10 5 14 21 25
37 25 15 0 28 9 28 20 0 11 -13 20 -30 20 -16 0 -30 9 -30 20 0 28 -26 23 -56
-11z"/>
<path d="M4720 240 c0 -11 -15 -20 -34 -20 -28 0 -26 -7 11 -41 57 -54 131 -4
76 51 -35 35 -53 38 -53 10z"/>
<path d="M2775 208 c-20 -19 22 -88 53 -88 34 0 82 56 65 74 -8 7 -24 3 -37
-10 -17 -17 -28 -15 -45 8 -12 17 -28 24 -36 16z"/>
<path d="M4243 145 c-3 -61 1 -65 62 -62 59 3 60 4 11 11 -40 6 -56 22 -62 62
-7 49 -8 48 -11 -11z"/>
<path d="M4480 119 c0 -33 -9 -39 -40 -29 -23 7 -40 4 -40 -9 0 -11 23 -21 50
-21 40 0 50 10 50 50 0 28 -4 50 -10 50 -5 0 -10 -19 -10 -41z"/>
<path d="M4910 140 c-17 -27 6 -60 41 -60 16 0 29 18 29 40 0 41 -48 55 -70
20z"/>
</g>
</svg>
